<svg xmlns="http://www.w3.org/2000/svg" width="90" height="90" viewBox="0 0 90 90">
  <defs>
    <style>
      .cls-1 {
        fill: #52b2dd;
      }

      .cls-2 {
        fill: #8eb63e;
      }

      .cls-3 {
        fill: none;
      }

      .cls-4 {
        fill: #0098c8;
      }

      .cls-5 {
        fill: #a8c66a;
      }

      .cls-6 {
        fill: #97bd4c;
      }
    </style>
  </defs>
  <g id="Layer_1" data-name="Layer 1">
    <g>
      <path class="cls-1" d="M63.9,9.74A40,40,0,0,0,9.75,63.9S21.62,83.08,45,83.08C62.63,83.08,83.23,64.8,83.23,45,83.23,29.74,63.9,9.74,63.9,9.74Z"/>
      <g>
        <path class="cls-2" d="M79.27,59.24c-.88.94-.61,1.21-1.41,1.74s-1.08.54-1.08,1.21.34.67,0,1.34-.94,1.28-.47,1.55-.4,1.07.27.6,1-.74,2.08-2.68c1.15-2.09,1.28-3,.94-3.36Z"/>
        <path class="cls-2" d="M63.57,32.33c.13.84-.81,2.08,0,1.61s1.27.11,1-.75S63.46,31.6,63.57,32.33Z"/>
        <g>
          <path class="cls-3" d="M67.59,38.24c.81.33.34-.2.74-.87s.47-.41,1.08-.21.13.74,1.27.68,0,0,.87.13A3.65,3.65,0,0,0,74,37.84c.54-.41,0,0,.33-.68s.07-.53-.53-.73-.27-.47-.54-.81-.4-.27-1.41-.2-.74-.67-.94-2-.07-.67-.67-.14-.07.41-.07,1.48-.33.67-1,.54-.27-.54-.51-1.08c0,0-.14-.47-.25-1a41,41,0,0,1-.91,5Zm3.15-2.48c.52-.14.34.06.61.53s0,.27-.4.41-.94-.41-.94-.41A1.14,1.14,0,0,1,70.74,35.76Z"/>
          <path class="cls-3" d="M68.63,22.27c.24-.54,1.38-.54,1.45-1s0,0-.34.14-.6.13-1.11-.36-.1-.51-.5-1.09.6-1.24.94-2.18-.57.33-1.58,1.44c.32,1.34.58,2.71.77,4.11C68.44,22.93,68.45,22.7,68.63,22.27Z"/>
          <path class="cls-4" d="M63.9,9.74A40,40,0,0,1,9.75,63.9,40,40,0,1,0,63.9,9.74Z"/>
          <path class="cls-5" d="M24.65,12.9c1.14-.22,2.15-.44,2-1s-.77-1.58-1-1.21A4.42,4.42,0,0,0,24.92,12C24.79,12.61,23.51,13.13,24.65,12.9Z"/>
          <path class="cls-5" d="M27.81,16.3c.6,0,1.43.42,1.41-.49s-.38-1.39,0-1.61.13.8.55.62.27-.8.63-.58.63.36.36.92-.72,1.25-.05.94,1.3-.94,1.06-.36-.7.65-1.21,1.09-.94.25-.74.72.31.76.8.6,1.08.5,1.08.5c.51.35.58-.18,1.14.4s.87,1.34,1.25.58.9-.67.65-1.34-1-1.61-.51-1.48.44.83.91.63a3.06,3.06,0,0,0,.92-.61c.47-.35.74-.31.25-.91S35,15.38,34.83,15s.16-.33,0-.78a3.25,3.25,0,0,0-1.32-1.52c-.61-.25-1.28-.2-1.37-.65a1.18,1.18,0,0,0-.87-.87A1.75,1.75,0,0,0,30,10.91l-.06,0-1,.24-.11,0a5.26,5.26,0,0,0-1.47.8c-.34.29-.69.19-.59.9s.7.54.84,1a1.32,1.32,0,0,1-.32,1.21.67.67,0,0,0,0,.57,2.11,2.11,0,0,1,.42.54A.67.67,0,0,0,27.81,16.3Z"/>
          <path class="cls-5" d="M24.32,12.41c.15-.29.3-.45,0-.63a1,1,0,0,0-1.14.31c-.16.29-.52.76-.23,1s.54.58.81.25.45-.37.56-.75S24.32,12.41,24.32,12.41Z"/>
          <path class="cls-5" d="M25.82,42a3.32,3.32,0,0,0-1.1-.52c-.6-.13-.83-.44-1.18-.31a1,1,0,0,0-.52.58,1.85,1.85,0,0,0,1.1.83c.4.07,1.16.07,1.49.4a1.87,1.87,0,0,0,1.17.63c.42,0,.7-.25.61-.52A5.68,5.68,0,0,0,25.82,42Z"/>
          <path class="cls-5" d="M25.93,43.74c-.72-.25-.61.54-.61.54.21.54.37.38.85.49s.76,0,.5-.37A1.28,1.28,0,0,0,25.93,43.74Z"/>
          <path class="cls-5" d="M28.46,43c-.45.09-.54.65-.54.65l0,0c-.26.16-.57.2-.49.6s.16,0,.76.52.79.54,1.26-.14.67-.51.2-1.07S28.9,42.89,28.46,43Z"/>
          <path class="cls-6" d="M28.57,68.64c0,.26,0,.5,0,.8.17,1.91-.33,1.78-.33,3.32s.4,1.48.37,2.72-1.21,1,0,2.38a8,8,0,0,0,2.71,2c.57.33,2.15,1.13,2.12.73s-.44-.33-1-1.07-.23-.3-.23-1.38-.78-.33-.31-1.44.44.17.67-1.14,0-1.14.88-1.68,1.27.44,1.64-.57-.57-.7.37-1.37.4.3,1.41-1,1.27-.63,1.57-2-.43-.93.18-1.56a40.19,40.19,0,0,1-10,1.31Z"/>
          <path class="cls-5" d="M44.21,56.25c-1-.23-1.27.24-1.47-.4s.3-.8-.68-.91-1.61,0-2-.67-.74-.7-1.78-.67-.17.07-.6-.84.9-.77-.64-1.5-2.15-.68-2.89-1.35-.57-.94-.8-1.34-.37-.5-1.31-.6A7.39,7.39,0,0,1,30,47.6c-.57-.24-.73-.57-1-.4s-.1.87-.4.46-.1-.87-.47-.73a6.44,6.44,0,0,0-1.07.7c-.44.27-.21.71-1,.84s-.64-.13-1.14-.17-.24.91-.84.14a2.08,2.08,0,0,1-.57-1.51,7.19,7.19,0,0,0-.07-1.21c-.1-.47-.2-.57-.8-.74s-1.25.24-1.14-.37.73-.74.7-1.44-.13-1-.5-1-.74.37-1.51.64-.91.84-1.65.33-.57-.9-.73-1.78a1.63,1.63,0,0,1,.3-1.71c.5-.84.4-1.07,1.21-1.1a21.45,21.45,0,0,0,2.41,0c.61-.14-.43-.77.61-.47s.8.2,1.17,1.21.2,1.84,1,1.4,1.21-.1.94-1.27-1.21-.67-.3-1.85a4,4,0,0,1,1.62-1.47c.86-.61.52.06.86-1s.13-.2.54-.8-.61,0,.3-.87a3.6,3.6,0,0,1,1.41-1c.87-.51.53-.67.77-1.21s.57-.84,1.31-.44.53.71,1.31-.13.43-1.34,1.17-.91,1.54.84,1-.13-1-1-1.57-1-1,.53-.88-.24-.47-1.88.27-1.37.84.94,1.34.3.07-.24.88-.67a5.22,5.22,0,0,1,1.11-.51s-1.18.71-1.21,1.38-.11.74.7,1.14.7.64,1.27.57.91.1.77-.84a14.81,14.81,0,0,0-.56-1.88c-.14-.63.16-1-.37-1.77S36,23.61,35.49,22.87a2.58,2.58,0,0,1-.57-1.54c-.1-.67,0-.84-.51-.87s-1,.83-1.44.58,0-.49-.6-1.09A2,2,0,0,0,31,19.1c-.84-.22-.84.22-1-.22s0-1-.4-.67a1.34,1.34,0,0,0-.47,1.34A7.51,7.51,0,0,1,29,21.3c0,.1,0,.16,0,.16s-.23-.4-.17.57-.27,1.35-.43,1.35.67-.91-.1-.51-.67-.93-.78,0-.13.37-.2,1.21.47.77,0,1-.48.27-.64-.6,1.22-.7-.21-1.24-1.25-.27-2-.74-1.28.47-1.31-.8-1.08-.37,0-1.38c.63-.6.74-.71.9-.89.86,0,1.25.57,1.47-.27s0-1.05,0-1.49a0,0,0,0,1,0,0c.15-.24.23-.26.47.16.47.84.21,1.17,1,1.33s.74.35.64-.29-.57-.73.06-.67.94.88,1,.14.1-.61-.4-1,0-.41-.54-.82a1.56,1.56,0,0,1-.26-.25.91.91,0,0,1-.42-.54l-.09-.1c-.67-.67-.11-.47-.41-1s-.27.7-.84-.2.14-1.18-.6-1.21-1,.07-1,.6.47,1,0,.94-.37-.5-1-.3-.14.77-.73.81-.29,0-.58,0-2.57.75-2,.3a2.66,2.66,0,0,1-1.08.57A4.59,4.59,0,0,1,17.47,16a40.16,40.16,0,0,0-7.41,9.53c0,.65-.37.62-.37,1.49s.27.87.2,1.44-1.07,1.48-1,3.32,0,2.42.67,3.53.94,1,1.07,1.81-.23,1.17.14,1.91.77.6,1,1.54.47,1.88.88,1.38.33-.57-.07-1.48-1.31-2-.57-1.71a3.49,3.49,0,0,1,1.71,2.08c.27.91-.77,1.68.62,2.82s1.56,2.15,2.8,1.84,1.31-.26,2,.51.54.67,1.41,1,.37.24,1.31,1,.8,1.14,2,1.55,1.74-.21,1.44,1-.74.3-1,2-.07,1.27-.2,2.24-1.14-.06.2,2.25.23,2.55,2,3.76,2.25,1,2.28,3.42c0,2-.1,3,0,4.47h.09a40.17,40.17,0,0,0,10-1.31,2.6,2.6,0,0,1,.19-.22c1.08-1,2-1,2.72-1.94a3.61,3.61,0,0,0,.84-2.49c.1-1.34-.77-1.24.37-2.51s1.44,0,1.44-1.81S45.19,56.49,44.21,56.25Z"/>
          <path class="cls-5" d="M27.58,16.2a2.11,2.11,0,0,0-.42-.54A.88.88,0,0,0,27.58,16.2Z"/>
          <path class="cls-5" d="M30.69,10.12c.27-.26.81.81,1.14,0s-.2-.93.61-1.47,1.11-.14,1.61-.4A5.8,5.8,0,0,1,36.53,7s.47.2-.47.6-1.68-.2-1.61.88-.09,1.67,1.1,1.67,2.39-.94,3.13.41-.07,2.68.53,3.28.88.07.54,1-.81.94-.27,2.15-.24,1.2.42,2.21,1.19,1.61,1.93,1.74.74.07,1.68-1.4.8-2.35,1.74-2.69,1.08.61,1.61-.27.54-.8,1.68-1,2.15-.27,2.35-.74-.14-.69.4-.85.81-.36.67-1-1-1,0-1.48,1.51-.33,1.31-1.07A13.36,13.36,0,0,1,53,9.12c-.27-1.21-.25-1.41.38-1.75S53,7.17,54,7s1.94.1,1.41-.31-1-.39-2.1-.39-.92-.11-1.44-.76a40,40,0,0,0-23.46,3h0l.13,0c.24.15-.9.15-.64.56a1.76,1.76,0,0,0,1.35.53c.53.07.47.47-.14.47s-.87-.33-1.68-.4l-1.15-.14h0l-.58.31h0c.49.42.32.77,1,.89s1.54.07,1.07.41c-.32.22.36.08,1.11-.1a6.84,6.84,0,0,1,1.1-.26C30.78,10.7,30.43,10.38,30.69,10.12Z"/>
          <path class="cls-5" d="M30,10.91a6.84,6.84,0,0,0-1.1.26l1-.24Z"/>
          <path class="cls-5" d="M24.52,11.4c.47-.53,1.25-1.21.8-1.24-.61.35-1.21.7-1.79,1.08C23.81,11.55,24.16,11.8,24.52,11.4Z"/>
          <path class="cls-2" d="M53.29,16.74l.08-.11C53.23,16.69,53.23,16.71,53.29,16.74Z"/>
          <path class="cls-5" d="M53.37,18.85c1.07-.47,1.81-1.21,1.34-1.68s-1.22-.36-1.42-.43c-.15.19-.52.55-.93.3s-1.34-.88-1.67-.41.33.88.6,1.68S52.3,19.32,53.37,18.85Z"/>
          <path class="cls-5" d="M55.6,26.43c.52.27,1.26.74,1.59,0s-.13-.81,0-1.54.94-.54.14-.74a1.28,1.28,0,0,0-1.21.2,4,4,0,0,0-.52,1C55.45,25.89,55.08,26.16,55.6,26.43Z"/>
          <path class="cls-5" d="M58.13,25.46c-.2.63-.43,1.29-.45,1.37s-.76.4.11.27,1,.06,1.55-.27.87-.06,1.21-.74.47-.77-.27-1.42-.87-.92-.87-1.66.27-.27-.34-.81.2-.74-.6-.53a2.55,2.55,0,0,0-1.14.53,14.35,14.35,0,0,1,.8,1.89A1.87,1.87,0,0,1,58.13,25.46Z"/>
          <path class="cls-5" d="M60.08,21.59c.07-.6-.2-1.06-.5-1a1,1,0,0,0-.51.45C59.48,21.6,60,22.18,60.08,21.59Z"/>
          <path class="cls-5" d="M62,33.17c0-.37-.53-.63-.57-.57l-.37.57c-.07.17-.4,1,0,.84S62,33.54,62,33.17Z"/>
          <path class="cls-5" d="M65.92,35.08c.33-.13-.07-.2,0-.6a.41.41,0,0,0-.34-.47l-.47.47A.65.65,0,0,0,65.92,35.08Z"/>
          <path class="cls-2" d="M71.35,36.29c-.27-.47-.09-.67-.61-.53a1.14,1.14,0,0,0-.73.53s.54.54.94.41S71.62,36.76,71.35,36.29Z"/>
          <path class="cls-6" d="M81.42,40.52c.87,0,1.2-.34,1.61.27s.58.78,1,.92a39.33,39.33,0,0,0-3.11-14.34,39.94,39.94,0,0,0-6.09-9,.89.89,0,0,1-.26.16c-.6.27-.8.61-1.14.2s-1.47-1.07-.6-.94,1.47,1.14,1.21,0a4.17,4.17,0,0,0-.13-.42c-.49-.52-1-1-1.52-1.5-.39-.2-.88-.53-1.37-.83a3.63,3.63,0,0,0-2.08-.6,8.51,8.51,0,0,0-2.62.6l-.08.05a41.21,41.21,0,0,1,1.25,4.14c1-1.11,1.9-2.33,1.58-1.44s-1.34,1.61-.94,2.18,0,.6.5,1.09.78.49,1.11.36.4-.61.34-.14-1.21.47-1.45,1-.19.66-.37,1.05a40.64,40.64,0,0,1,.39,5.33,39.92,39.92,0,0,1-.27,4.53c.11.56.25,1,.25,1,.24.54-.16.94.51,1.08s1,.53,1-.54-.53-.94.07-1.48.47-1.2.67.14-.07,2.08.94,2,1.14-.13,1.41.2-.07.61.54.81.87.06.53.73.21.27-.33.68a3.65,3.65,0,0,1-2.42.13c-.87-.13.27-.2-.87-.13s-.67-.47-1.27-.68-.68-.46-1.08.21.07,1.2-.74.87l-.12-.07a40,40,0,0,1-5.69,12.9,1,1,0,0,1,.31.32c.54.8,1.61,0,1.48,1.07s-.87,1.21-.2,2.35,1.81.87,1.81,2.69.94,2.34,0,3.35S64,62.06,64.51,63a6.22,6.22,0,0,1,.8,2.88c.2,1.54-.5,1.81.29,3s.05,1.68.85,2.35,1.08,1,1.82.54.67-.87,1.61-1.07.93-.41,1.74-1.55a13.09,13.09,0,0,0,1.28-1.88c.6-1.07.73-.33,1-1.34s-.33-1,.34-1.94.87-.61,1.61-1.75.53-1.27.47-2.68-.32-1.21.07-2.82,0-.6,1.47-2.21S79.6,53,80,51.79a10.12,10.12,0,0,0,.73-2.15c.21-1.14.54-2.13-.26-1.7s-1.68,1-2.28.43a21.71,21.71,0,0,1-1.75-3.24c-.4-.65-.54-2.34-1.21-2.74s-.53-.26-.87-1.23-.87-1.78-.2-1.45.8.48,1.41,1.45a15.72,15.72,0,0,1,1.34,2.53c.34.86.67,1.46,1.07,2.26s.21,1,.47,1.48.41.34,1.21-.13,1.54-.88,2.35-1.41,1.07-.27,1.21-1.34.4-.37,0-1.6-.34-2-1.14-1.79a1.11,1.11,0,0,1-1.48-.51c-.4-.53-1.21-1.47-.6-1.41S80.54,40.52,81.42,40.52Z"/>
          <path class="cls-5" d="M66.39,37.23a6.33,6.33,0,0,0-1.21-.6c-.61-.14-.74-.27-.67-1s-.4-.94-.94-1.07a8.89,8.89,0,0,0-2.82.53,4.76,4.76,0,0,1-2.21.5c-.74-.16-1.08,0-1.95.58s-.51.8-1,1.88-.62.4-1.56,1.41-1.36,1-1.31,2.34-.77.85-.37,1.9-.15.32-.11,1.79-.77,2,.48,3.36,1.21,2.28,2.87,2.68,1.53-.33,2.47,0,1.34,0,2.28-.2c.74-.16,1.06-.5,1.43-.25a40,40,0,0,0,5.69-12.9C66.82,37.86,66.82,37.54,66.39,37.23Z"/>
          <path class="cls-5" d="M65,16.45c-.67.72-.8,2.23-1.74,2.65s-1.54.49-1.34,1.43-.2,1.67.74,1.94.94-.8,1.47-.2-.4,1.27.67,1.41,1.14,1.07,1.55.07-.07-1,.53-1.55,1.35,0,.74-1.16-1.41-.51-.33-1.66l.16-.17a41.21,41.21,0,0,0-1.25-4.14C65.61,15.34,65.68,15.76,65,16.45Z"/>
          <path class="cls-5" d="M66.86,24.48c-.88.07-1.14.21-1.68-.06s-.74.13-1-.34-.2-1.47-.6-.94-.61.34-.47,1,.2.74-.61.94-.8.53-1.4,1.34-1.21.6-1.88,1.07-1.75-.13-1.08.94,2,.81,1.41,1.55.54.8-.6.73-2.08-.6-2.55.41-1,.94-.79,2,0,1.94,1,1.81,1.88.34,2.68-.33.68-1,1.08-1.61a4.24,4.24,0,0,1,1.54-1.55c.6-.27.81-.8,1.54-.47s.61.47,1.35,1,.2.33,1,.94.74,0,.81.6-.4,1.08.13,1,.67-.2.74-.67.27-.61.4-.4,1,0,.07-.61a4.52,4.52,0,0,1-1.41-1.14c-.8-.8-1.14-.74-1.21-1.27s.47-.61,1.41.47,1.48.63,1.55,1.47a7,7,0,0,0,.11.78,39.92,39.92,0,0,0,.27-4.53,40.64,40.64,0,0,0-.39-5.33,2.21,2.21,0,0,1-.13.29C67.73,24.28,67.73,24.42,66.86,24.48Z"/>
        </g>
      </g>
    </g>
  </g>
</svg>
