<svg width="128" height="125" viewBox="0 0 128 125" fill="none" xmlns="http://www.w3.org/2000/svg">
<g filter="url(#filter0_di_107_61)">
<path d="M62.5 122H65.5C97.8087 122 124 95.8087 124 63.5C124 31.1913 97.8087 5 65.5 5H62.5C30.1913 5 4 31.1913 4 63.5C4 95.8087 30.1913 122 62.5 122Z" fill="#434A54"/>
</g>
<g filter="url(#filter1_ii_107_61)">
<path d="M60.5 114H66.5C93.8381 114 116 91.8381 116 64.5C116 37.1619 93.8381 15 66.5 15H60.5C33.1619 15 11 37.1619 11 64.5C11 91.8381 33.1619 114 60.5 114Z" fill="url(#paint0_linear_107_61)"/>
</g>
<g filter="url(#filter2_di_107_61)">
<path d="M62.6697 25.1956L59.1946 25.5251C39.7231 27.3713 24.2555 42.6935 22.2254 62.1467C22.0755 63.5825 22.078 65.0345 22.2318 66.4699C24.2816 85.6021 38.9547 101.028 57.972 103.958L61.3064 104.472C63.5773 104.822 65.8881 104.828 68.1608 104.49L70.7883 104.099C90.7811 101.125 105.919 84.4902 107 64.3064C105.934 43.8675 90.0166 27.3147 69.6352 25.4489L66.7954 25.1889C65.4229 25.0632 64.0418 25.0655 62.6697 25.1956Z" fill="#434A54"/>
</g>
<defs>
<filter id="filter0_di_107_61" x="0" y="0" width="128" height="125" filterUnits="userSpaceOnUse" color-interpolation-filters="sRGB">
<feFlood flood-opacity="0" result="BackgroundImageFix"/>
<feColorMatrix in="SourceAlpha" type="matrix" values="0 0 0 0 0 0 0 0 0 0 0 0 0 0 0 0 0 0 127 0" result="hardAlpha"/>
<feOffset dy="-1"/>
<feGaussianBlur stdDeviation="2"/>
<feComposite in2="hardAlpha" operator="out"/>
<feColorMatrix type="matrix" values="0 0 0 0 0.479167 0 0 0 0 0.390441 0 0 0 0 0.0758681 0 0 0 0.5 0"/>
<feBlend mode="normal" in2="BackgroundImageFix" result="effect1_dropShadow_107_61"/>
<feBlend mode="normal" in="SourceGraphic" in2="effect1_dropShadow_107_61" result="shape"/>
<feColorMatrix in="SourceAlpha" type="matrix" values="0 0 0 0 0 0 0 0 0 0 0 0 0 0 0 0 0 0 127 0" result="hardAlpha"/>
<feOffset dy="3"/>
<feGaussianBlur stdDeviation="1"/>
<feComposite in2="hardAlpha" operator="arithmetic" k2="-1" k3="1"/>
<feColorMatrix type="matrix" values="0 0 0 0 0.908333 0 0 0 0 0.782605 0 0 0 0 0.33684 0 0 0 0.5 0"/>
<feBlend mode="normal" in2="shape" result="effect2_innerShadow_107_61"/>
</filter>
<filter id="filter1_ii_107_61" x="11" y="11" width="105" height="107" filterUnits="userSpaceOnUse" color-interpolation-filters="sRGB">
<feFlood flood-opacity="0" result="BackgroundImageFix"/>
<feBlend mode="normal" in="SourceGraphic" in2="BackgroundImageFix" result="shape"/>
<feColorMatrix in="SourceAlpha" type="matrix" values="0 0 0 0 0 0 0 0 0 0 0 0 0 0 0 0 0 0 127 0" result="hardAlpha"/>
<feOffset dy="7"/>
<feGaussianBlur stdDeviation="2"/>
<feComposite in2="hardAlpha" operator="arithmetic" k2="-1" k3="1"/>
<feColorMatrix type="matrix" values="0 0 0 0 0 0 0 0 0 0 0 0 0 0 0 0 0 0 0.25 0"/>
<feBlend mode="normal" in2="shape" result="effect1_innerShadow_107_61"/>
<feColorMatrix in="SourceAlpha" type="matrix" values="0 0 0 0 0 0 0 0 0 0 0 0 0 0 0 0 0 0 127 0" result="hardAlpha"/>
<feOffset dy="-6"/>
<feGaussianBlur stdDeviation="2"/>
<feComposite in2="hardAlpha" operator="arithmetic" k2="-1" k3="1"/>
<feColorMatrix type="matrix" values="0 0 0 0 0 0 0 0 0 0 0 0 0 0 0 0 0 0 0.25 0"/>
<feBlend mode="normal" in2="effect1_innerShadow_107_61" result="effect2_innerShadow_107_61"/>
</filter>
<filter id="filter2_di_107_61" x="18.1147" y="22.0963" width="92.8853" height="87.6429" filterUnits="userSpaceOnUse" color-interpolation-filters="sRGB">
<feFlood flood-opacity="0" result="BackgroundImageFix"/>
<feColorMatrix in="SourceAlpha" type="matrix" values="0 0 0 0 0 0 0 0 0 0 0 0 0 0 0 0 0 0 127 0" result="hardAlpha"/>
<feOffset dy="1"/>
<feGaussianBlur stdDeviation="2"/>
<feComposite in2="hardAlpha" operator="out"/>
<feColorMatrix type="matrix" values="0 0 0 0 0 0 0 0 0 0 0 0 0 0 0 0 0 0 0.5 0"/>
<feBlend mode="normal" in2="BackgroundImageFix" result="effect1_dropShadow_107_61"/>
<feBlend mode="normal" in="SourceGraphic" in2="effect1_dropShadow_107_61" result="shape"/>
<feColorMatrix in="SourceAlpha" type="matrix" values="0 0 0 0 0 0 0 0 0 0 0 0 0 0 0 0 0 0 127 0" result="hardAlpha"/>
<feOffset dy="4"/>
<feGaussianBlur stdDeviation="2"/>
<feComposite in2="hardAlpha" operator="arithmetic" k2="-1" k3="1"/>
<feColorMatrix type="matrix" values="0 0 0 0 0.909804 0 0 0 0 0.784314 0 0 0 0 0.337255 0 0 0 0.5 0"/>
<feBlend mode="normal" in2="shape" result="effect2_innerShadow_107_61"/>
</filter>
<linearGradient id="paint0_linear_107_61" x1="13.5" y1="64" x2="116" y2="68" gradientUnits="userSpaceOnUse">
<stop stop-color="#9eacc0"/>
<stop offset="0.893635" stop-color="#9eacc0"/>
<stop offset="1" stop-color="#9eacc0" stop-opacity="0.95"/>
</linearGradient>
</defs>
</svg>
